<svg width="234" height="46" viewBox="0 0 234 46" fill="none" xmlns="http://www.w3.org/2000/svg">
<g id="Logo">
<g id="Travellian">
<path d="M59.5641 12.2979V39.1589H54.5044V12.2979H46.2344V7.99844H67.7916V12.2979H59.5641Z" fill="#55FF66" style="fill:#55FF66;fill:color(display-p3 0.3333 1.0000 0.4000);fill-opacity:1;"/>
<path d="M72.3199 22.1952C72.816 20.8614 73.4679 19.8752 74.2758 19.2366C75.0978 18.5981 76.1112 18.2788 77.3159 18.2788C77.9679 18.2788 78.6057 18.3569 79.2293 18.513C79.8671 18.6691 80.4907 18.8961 81.1001 19.1941L79.4419 23.1104C79.045 22.8266 78.6128 22.6209 78.145 22.4932C77.6915 22.3513 77.1813 22.2803 76.6144 22.2803C75.0837 22.2803 73.9852 22.8976 73.3191 24.1321C72.653 25.3524 72.3199 27.4099 72.3199 30.3046V39.1589H67.7066V18.9387H72.3199V22.1952Z" fill="#55FF66" style="fill:#55FF66;fill:color(display-p3 0.3333 1.0000 0.4000);fill-opacity:1;"/>
<path d="M102.7 39.1589H98.0866V36.5409C97.2645 37.7045 96.3008 38.5701 95.1953 39.1376C94.1039 39.7052 92.8496 39.989 91.4323 39.989C88.5835 39.989 86.3371 39.017 84.693 37.073C83.0631 35.1149 82.2481 32.4401 82.2481 29.0488C82.2481 25.8277 83.0844 23.231 84.7568 21.2587C86.4292 19.2721 88.6119 18.2788 91.3047 18.2788C92.9488 18.2788 94.352 18.6265 95.5141 19.3218C96.6905 20.0029 97.548 20.9891 98.0866 22.2803V18.9812H102.7V39.1589ZM98.2141 29.0062C98.2141 26.9203 97.7251 25.2956 96.7472 24.1321C95.7834 22.9685 94.4299 22.3868 92.6866 22.3868C90.9433 22.3868 89.5685 22.9898 88.5623 24.1959C87.5701 25.3879 87.0741 27.0481 87.0741 29.1765C87.0741 31.3191 87.556 32.9722 88.5197 34.1358C89.4835 35.2993 90.8441 35.8811 92.6016 35.8811C94.2598 35.8811 95.6063 35.2497 96.6409 33.9868C97.6897 32.7239 98.2141 31.0637 98.2141 29.0062Z" fill="#55FF66" style="fill:#55FF66;fill:color(display-p3 0.3333 1.0000 0.4000);fill-opacity:1;"/>
<path d="M116.157 40.3721L105.591 18.9812H110.63L115.03 29.1339C115.172 29.4461 115.342 29.9144 115.541 30.5387C115.739 31.1631 115.945 31.908 116.157 32.7736C116.299 32.1634 116.462 31.5604 116.646 30.9644C116.845 30.3542 117.078 29.7441 117.348 29.1339L121.727 18.9812H126.745L116.157 40.3721Z" fill="#55FF66" style="fill:#55FF66;fill:color(display-p3 0.3333 1.0000 0.4000);fill-opacity:1;"/>
<path d="M149.067 29.7512H132.952C133.066 31.6384 133.626 33.1141 134.632 34.1784C135.638 35.2284 136.977 35.7534 138.65 35.7534C140.138 35.7534 141.378 35.4412 142.37 34.8169C143.362 34.1925 144.227 33.1851 144.964 31.7945L148.854 33.9655C147.721 35.9946 146.318 37.5058 144.645 38.4991C142.973 39.4924 141.01 39.989 138.756 39.989C135.525 39.989 132.952 39.0028 131.039 37.0305C129.126 35.0581 128.169 32.4259 128.169 29.1339C128.169 25.9696 129.154 23.3729 131.124 21.3438C133.108 19.3005 135.652 18.2788 138.756 18.2788C142.002 18.2788 144.532 19.2083 146.346 21.0671C148.16 22.926 149.067 25.5298 149.067 28.8785V29.7512ZM144.284 26.6437C144.099 25.1963 143.547 24.0966 142.625 23.3446C141.704 22.5783 140.443 22.1952 138.841 22.1952C137.325 22.1952 136.106 22.5641 135.185 23.302C134.263 24.0398 133.618 25.1537 133.25 26.6437H144.284Z" fill="#55FF66" style="fill:#55FF66;fill:color(display-p3 0.3333 1.0000 0.4000);fill-opacity:1;"/>
<path d="M154.106 39.1589V6.16797H158.719V39.1589H154.106Z" fill="#55FF66" style="fill:#55FF66;fill:color(display-p3 0.3333 1.0000 0.4000);fill-opacity:1;"/>
<path d="M165.543 39.1589V6.16797H170.157V39.1589H165.543Z" fill="#55FF66" style="fill:#55FF66;fill:color(display-p3 0.3333 1.0000 0.4000);fill-opacity:1;"/>
<path d="M176.364 10.2546C176.364 9.47416 176.648 8.80015 177.215 8.23256C177.796 7.66498 178.483 7.38118 179.277 7.38118C180.099 7.38118 180.779 7.65788 181.318 8.21128C181.871 8.75049 182.147 9.43159 182.147 10.2546C182.147 11.0776 181.871 11.7729 181.318 12.3405C180.765 12.8939 180.085 13.1706 179.277 13.1706C178.483 13.1706 177.796 12.8868 177.215 12.3192C176.648 11.7374 176.364 11.0492 176.364 10.2546ZM176.981 39.1589V18.9812H181.594V39.1589H176.981Z" fill="#55FF66" style="fill:#55FF66;fill:color(display-p3 0.3333 1.0000 0.4000);fill-opacity:1;"/>
<path d="M207.17 39.1589H202.556V36.5409C201.734 37.7045 200.77 38.5701 199.665 39.1376C198.574 39.7052 197.319 39.989 195.902 39.989C193.053 39.989 190.807 39.017 189.163 37.073C187.533 35.1149 186.718 32.4401 186.718 29.0488C186.718 25.8277 187.554 23.231 189.227 21.2587C190.899 19.2721 193.082 18.2788 195.774 18.2788C197.419 18.2788 198.822 18.6265 199.984 19.3218C201.16 20.0029 202.018 20.9891 202.556 22.2803V18.9812H207.17V39.1589ZM202.684 29.0062C202.684 26.9203 202.195 25.2956 201.217 24.1321C200.253 22.9685 198.9 22.3868 197.156 22.3868C195.413 22.3868 194.038 22.9898 193.032 24.1959C192.04 25.3879 191.544 27.0481 191.544 29.1765C191.544 31.3191 192.026 32.9722 192.989 34.1358C193.953 35.2993 195.314 35.8811 197.071 35.8811C198.73 35.8811 200.076 35.2497 201.111 33.9868C202.159 32.7239 202.684 31.0637 202.684 29.0062Z" fill="#55FF66" style="fill:#55FF66;fill:color(display-p3 0.3333 1.0000 0.4000);fill-opacity:1;"/>
<path d="M213.547 39.1589V18.9812H217.884V22.2803C218.806 20.8897 219.89 19.8752 221.137 19.2366C222.384 18.5981 223.901 18.2788 225.687 18.2788C227.189 18.2788 228.465 18.5201 229.513 19.0025C230.576 19.4708 231.406 20.1732 232.001 21.1097C232.355 21.6631 232.61 22.3087 232.766 23.0466C232.922 23.7844 233 25.0757 233 26.9203V39.1589H228.344V28.7934C228.344 26.1399 228.018 24.3804 227.366 23.5148C226.728 22.6351 225.588 22.1952 223.943 22.1952C222.866 22.1952 221.903 22.3938 221.052 22.7912C220.216 23.1885 219.557 23.749 219.075 24.4726C218.735 24.9551 218.494 25.5794 218.352 26.3457C218.225 27.0977 218.161 28.3038 218.161 29.964V39.1589H213.547Z" fill="#55FF66" style="fill:#55FF66;fill:color(display-p3 0.3333 1.0000 0.4000);fill-opacity:1;"/>
</g>
<path id="Vector" d="M14.443 33.2473L20.3596 39.08L26.2762 33.2473L20.3596 27.4147L14.443 33.2473ZM20.3596 4.94084V4.94961C18.6662 4.94961 16.9728 5.58696 15.6827 6.85873L15.6768 6.85289C14.3896 8.12466 13.7431 9.79697 13.7431 11.4693C13.7431 13.1445 14.3867 14.8139 15.6708 16.0798H15.6797L20.3596 20.6904L25.0366 16.0798H25.0455C26.3385 14.8051 26.985 13.1357 26.985 11.4693H26.9761C26.9761 9.7999 26.3296 8.13051 25.0395 6.85873C23.7405 5.58111 22.0471 4.94084 20.3596 4.94084ZM29.6868 36.6095L22.0649 44.1232L20.3596 45.8043L18.6543 44.1232L11.0325 36.6095L3.41057 44.1232L0 40.761L16.952 24.0526L12.2751 19.442L12.281 19.4362C10.0419 17.2317 8.92383 14.3461 8.92383 11.4693C8.92383 8.58952 10.0419 5.70683 12.2751 3.50534V3.49949C14.5083 1.29801 17.4354 0.195801 20.3596 0.195801V0.204572C23.2898 0.204572 26.2199 1.30385 28.4471 3.49949C30.6803 5.70098 31.7954 8.58659 31.7954 11.4722H31.7865C31.7865 14.3549 30.6714 17.2376 28.4412 19.4391L28.4471 19.4449L23.7702 24.0526L40.7193 40.761L37.3087 44.1232L29.6868 36.6095Z" fill="#55FF66" style="fill:#55FF66;fill:color(display-p3 0.3333 1.0000 0.4000);fill-opacity:1;"/>
</g>
</svg>
